<?xml version="1.0" encoding="UTF-8"?>
<svg xmlns="http://www.w3.org/2000/svg" viewBox="0 0 425.43 425.43">
  <defs>
    <style>
      .cls-1 {
        fill: #a895c7;
      }

      .cls-2 {
        fill: #54dafe;
      }

      .cls-3 {
        fill: #54d9fe;
      }

      .cls-4 {
        fill: #6831d6;
        stroke: #1d1d1b;
        stroke-miterlimit: 10;
      }

      .cls-5 {
        fill: #11100e;
      }

      .cls-6 {
        fill: #07bff9;
      }

      .cls-7 {
        fill: #aa97c7;
      }

      .cls-8 {
        fill: #141111;
      }

      .cls-9 {
        fill: #1d1d1b;
      }

      .cls-10 {
        fill: #13100f;
      }
    </style>
  </defs>
  <g id="_лой_1" data-name="Слой 1"/>
  <g id="_лой_2" data-name="Слой 2">
    <g id="_лой_1-2" data-name="Слой 1">
      <g>
        <rect class="cls-6" x="7.5" y="7.5" width="410.43" height="410.43" rx="71.5" ry="71.5"/>
        <path class="cls-9" d="M346.43,425.43H79C35.44,425.43,0,389.99,0,346.43V79C0,35.44,35.44,0,79,0H346.43c43.56,0,79,35.44,79,79V346.43c0,43.56-35.44,79-79,79ZM78.16,15.65C42.77,15.65,13.98,44.32,13.98,79.57V346.68c0,35.25,28.79,63.92,64.18,63.92H346.33c35.39,0,64.18-28.67,64.18-63.92V79.57c0-35.25-28.79-63.92-64.18-63.92H78.16Z"/>
        <path class="cls-2" d="M382.24,35.32l13.03,23.58c-2.98,.04-4.41,.54-5.35,0-9.74-5.64-19.57-11.14-28.99-17.39-2.86-1.9-5.27-5.76-6.56-9.17-1.96-5.2,3.36-11.09,8.46-9.76,3.45,.9,6.79,2.61,10.17,3.96,3.08,2.93,6.15,5.86,9.23,8.79Z"/>
        <path class="cls-3" d="M392.49,74.79c.81,2.37,1.65,4.73,2.42,7.11,.92,2.83,1.9,5.65,2.63,8.55,.29,1.15-.03,2.48-.08,3.73-.78-.38-1.69-.51-2.32-1.19-5.06-5.45-10.24-10.72-14.96-16.69-1.31-1.66-1.92-5.83-1.54-8.23,.48-3.02,2.76-3.8,5.28-2.21,.62,.39,1.32,.47,1.98,.69,2.19,2.75,4.39,5.5,6.58,8.25Z"/>
      </g>
      <g>
        <path class="cls-4" d="M199.01,78.68c4.99-9.01,12.09-14.44,17.39-5.61l3.28,16.13,19.83,30.03,31.66,40.6,28.87,48.05,24.99,41.59c4.18,6.96,10.67,9.83,14.86,16.79,4.68,7.79,7.06,19.69,11.75,27.48,6.48,10.79,12.97,21.58,19.45,32.37,5.3,8.83-.94,20.09-11.23,20.27-12.75-.87-32.93-1.63-57.69,.25-29.27,2.22-40.46,6.27-65.26,6.89-30.15,.76-29.92-6.24-61.37-6.01-21.76,.17-25.62,6.7-53.4,8.02-21.3,1.01-44.53-.84-55.63-1.61-4.88-5.36-9.31-9.88-10.16-21.45-1.86-25.35,28.26-37.94,48.05-78.58,14.44-29.64,8.14-44.26,27.69-65.35,6.08-6.56,11.76-10.62,17.65-20.9,9.62-16.78,3.94-22.47,11.13-40.87,8.89-22.75,22.09-19.15,38.14-48.09Z"/>
        <path class="cls-9" d="M44.7,337.65c.07,4.08,1.21,8.15,3.42,11.84,6.29,10.55,18.14,11.57,20.45,11.67h.65c3.79-.12,8.31,.58,13.55,1.38,8.75,1.34,19.63,3.01,34.02,2.13,22.06-1.35,33.55-4.27,41.95-6.4,5.24-1.33,11.42-4.62,15.63-4.69,8.1-.13,16.92,4.65,28.07,6.95,11.18,2.3,22.75,4.68,32.07,4.79,8.86,.11,16.1-3.35,23.91-5.28,7.53-1.86,16.17-2.31,25.04-2.46,8.16-.14,17.31,.5,25.77-2.87,16.75-6.67,33.47-2.94,52.73,1.11,5.9,1.24,11.82-1.15,15.44-6.24,3.9-5.47,4.41-12.84,1.38-18.63l-11.35-29.47c-.04-.09-.07-.18-.1-.28-2.25-7.27-7.47-18.85-11.21-25.41-5.06-8.87-7.04-15.1-9.42-19.09-4.28-7.16-14.04-18.97-22.7-27.47-6-5.9-10.73-12.52-14.04-19.68l-10.21-22.05c-1.86-4.01-6.13-11.88-8.28-15.76-4.92-8.91-9.11-13.66-16.89-21.75l-19.79-20.58c-3.15-3.27-8.77-8.31-11.35-12.05-2.58-3.73-4.09-9.86-6.04-13.96-2.02-4.25-2.7-4.34-5.23-7.97-2.22-3.18-4.31-6.18-5.7-9.11-.87-1.83-1.24-3.97-1.66-6.44-.56-3.29-1.2-7.01-3.12-11.04-3.49-7.35-13.13-9.97-20.06-8.19-5.09,1.31-9.38,4.8-13.11,10.68-6.28,9.9-6.24,13.58-7.21,16.87-.76,2.59-1.45,1.91-9.29,11.59-.61,.73-3.03,2.57-4.79,3.91-5.5,4.2-9.95,8.38-12.99,15.28-3.58,8.13-6.3,11-7.01,17.49-.23,2.11-.17,9.51-.75,13.53-2.31,16.18-10.38,21.49-18.53,32.01-4.02,5.18-8.18,10.55-11.48,16.56-3.71,6.75-6.53,15.24-9.52,24.22-4.25,12.78-5.28,27.64-11.91,32.74-6.52,5.02-25.32,22.17-28.26,27.17-3.13,5.32-7.47,20.1-8.48,24.83-1.21,5.65-5.41,8.97-10.47,17.94-2.15,3.82-3.19,8-3.12,12.16Zm24.44,5.88c-.83-.09-4.42-.61-5.88-3.07-.56-.94-1.7-3.45-.08-6.31,6.38-11.31,8.06-19.14,9.4-25.44,.85-3.97,1.46-6.84,3.14-9.7,2.5-4.09,22.06-26.64,26.28-29.88,10.9-8.39,16.38-24.85,21.67-40.77,2.73-8.2,2.89-16.93,5.83-22.27,2.64-4.8,8.61-8.42,12.38-13.28,8.78-11.32,18.72-24.16,21.69-44.96,.61-4.27,.93-7.21,1.18-9.45,.56-5.12,.48-7.72,3.1-13.68,1.21-2.73,9.14-5.24,11.76-8.75,2.94-3.95,3.99-7.57,5.87-9.9,9.51-11.74,8.36-11.98,10.3-15.95,2.96-6.04,2.43-1.2,7.6-9.34,1.69-2.66,2.65-3.07,2.66-3.07,.04,0,.13,0,.24,.03,.51,1.52,.8,3.21,1.13,5.11,.56,3.28,1.2,7.01,3.12,11.04,2.02,4.25,4.64,8,7.16,11.63,2.22,3.18,4.31,6.18,5.7,9.11,2.36,4.96,5.13,9.75,8.25,14.26,3.12,4.51,6.63,8.8,10.43,12.75l15.3,15.91c6.71,6.98,15.35,12.16,19.53,19.73,.83,1.51,1.84,4.68,2.86,8.1,2.17,7.32,5.39,14.3,9.5,20.74l3.42,5.35c4.16,9.04,12.7,18.1,21.05,26.43,8.32,8.3,14.76,22.77,17.81,27.87,3.31,5.53,12.23,17.09,16.62,24.79,.95,1.68,3.46,6.42,3.95,8.28l8.21,30.79c1.03,3.87-2.24,7.49-6.2,6.91-16.99-2.46-29.11-.9-44.55,2.14-7.92,1.56-20.4,2.48-27.52,2.6-10.86,.19-18.86,2.92-26.94,4.91-7.36,1.81-13.8,1.58-20.42,1.5-7.63-.09-20.21-.99-30.58-3.12-12.09-2.49-22.73-6.37-32.77-6.2-6.27,.1-15.73,5.5-21.47,6.96-8.14,2.07-16.19,3.4-36.6,4.65-12.5,.77-19.52-3.59-27.85-4.87-5.67-.87-11.04-1.69-16.3-1.59Z"/>
        <path class="cls-5" d="M112.09,329.98c-4.19-.26-8.31-.56-12.44-.75-4.49-.2-8.99-.31-13.48-.41-1-.02-2.05,.03-3.02,.28-3.05,.8-4.13,4.27-1.69,6.17,1.76,1.36,4.14,2.38,6.32,2.52,6.38,.41,12.79,.13,19-2.13,3.32-1.21,4.28-2.25,5.31-5.7Z"/>
        <path class="cls-7" d="M258.18,165.82c-2.87-1.65-6.54-4.18-10.22-5.76-4.79-2.06-7.09,.62-4.07,4.66,3.03,4.04,6.54,8.06,10.26,11.86,3.28,3.36,9.06,4.74,11.55,3.23,1.97-1.19,.89-5.82-2.28-9.19-1.37-1.45-3.01-2.77-5.23-4.79Z"/>
        <path class="cls-10" d="M311.22,322.84c-.64,.81-1.27,1.63-2.03,2.6,2.46,2.38,5.33,2.22,8.05,2.33,4.42,.18,8.84,.19,13.26,.27,1.59-.11,3.18-.15,4.76-.34,2.86-.34,5.41-2.71,5.47-4.97,.06-2.21-1.77-4.54-4.49-5.26-1.52-.4-3.18-.39-4.77-.36-6.5,.13-12.72,1.3-18.23,5.08-.56,.38-1.35,.44-2.03,.65Z"/>
        <path class="cls-8" d="M208.88,333.78c6.6,1.73,12.33,3.24,18.05,4.73,1.6,.42,3.2,.88,4.82,1.22,6.04,1.3,9,.01,10.05-4.34,.89-3.68-1.87-8.6-6.46-10.25-8.5-3.05-16.91-.43-25.12,4.66-.64,.4-1.1,1.67-1.41,2.64-.19,.57,.07,1.33,.07,1.34Z"/>
        <path class="cls-7" d="M288.83,235.71c3.58,7.63,8.18,13.94,15.38,18.74,4.24,2.83,7.87,2.62,9.65-.37,1.54-2.58,.51-6.09-3.15-9.44-5.41-4.94-11.4-7.97-17.56-9.51-1.42-.36-2.68,.32-4.31,.57Z"/>
        <path class="cls-7" d="M200.65,106.42c1.86,7.36,5.79,13.23,9.27,19.36,1.59,2.79,3.46,5.4,5.28,8.03,1.26,1.83,3.38,1.76,5.41,.9,2.05-.87,2.98-2.73,2.88-4.8-.06-1.16-.12-2.37-.52-3.39-2.81-7.3-7.47-13.18-13.02-18.35-1.15-1.07-2.66-1.82-4.16-2.44-1.49-.61-3.16-1.16-5.14,.69Z"/>
        <path class="cls-1" d="M198.63,97.96c2.17,2.03,5.32,2,7.37-.05,1.75-1.76,1.66-4.78-.19-6.55-2.13-2.03-6.35-2.17-8.26-.27-1.51,1.5-.97,4.96,1.09,6.87Z"/>
      </g>
    </g>
  </g>
</svg>