<?xml version="1.0" encoding="UTF-8"?>
<svg xmlns="http://www.w3.org/2000/svg" viewBox="0 0 425.43 425.43">
  <defs>
    <style>
      .cls-1 {
        fill: #a895c7;
      }

      .cls-2 {
        fill: #54dafe;
      }

      .cls-3 {
        fill: #54d9fe;
      }

      .cls-4 {
        fill: #6831d6;
        stroke: #1d1d1b;
        stroke-miterlimit: 10;
      }

      .cls-5 {
        fill: #11100e;
      }

      .cls-6 {
        fill: #07bff9;
      }

      .cls-7 {
        fill: #aa97c7;
      }

      .cls-8 {
        fill: #141111;
      }

      .cls-9 {
        fill: #1d1d1b;
      }

      .cls-10 {
        fill: #13100f;
      }
    </style>
  </defs>
  <g id="_лой_1" data-name="Слой 1"/>
  <g id="_лой_2" data-name="Слой 2">
    <g id="_лой_1-2" data-name="Слой 1">
      <g>
        <rect class="cls-6" x="7.5" y="7.5" width="410.43" height="410.43" rx="71.5" ry="71.5"/>
        <path class="cls-9" d="M346.43,425.43H79C35.44,425.43,0,389.99,0,346.43V79C0,35.44,35.44,0,79,0H346.43c43.56,0,79,35.44,79,79V346.43c0,43.56-35.44,79-79,79ZM78.16,15.65C42.77,15.65,13.98,44.32,13.98,79.57V346.68c0,35.25,28.79,63.92,64.18,63.92H346.33c35.39,0,64.18-28.67,64.18-63.92V79.57c0-35.25-28.79-63.92-64.18-63.92H78.16Z"/>
        <path class="cls-2" d="M382.24,35.32l13.03,23.58c-2.98,.04-4.41,.54-5.35,0-9.74-5.64-19.57-11.14-28.99-17.39-2.86-1.9-5.27-5.76-6.56-9.17-1.96-5.2,3.36-11.09,8.46-9.76,3.45,.9,6.79,2.61,10.17,3.96,3.08,2.93,6.15,5.86,9.23,8.79Z"/>
        <path class="cls-3" d="M392.49,74.79c.81,2.37,1.65,4.73,2.42,7.11,.92,2.83,1.9,5.65,2.63,8.55,.29,1.15-.03,2.48-.08,3.73-.78-.38-1.69-.51-2.32-1.19-5.06-5.45-10.24-10.72-14.96-16.69-1.31-1.66-1.92-5.83-1.54-8.23,.48-3.02,2.76-3.8,5.28-2.21,.62,.39,1.32,.47,1.98,.69,2.19,2.75,4.39,5.5,6.58,8.25Z"/>
      </g>
      <g>
        <path class="cls-4" d="M365.87,103.11c5.3-8.83,6.46-17.69-3.84-17.87l-15.61,5.22-35.92-2.16-50.99-7.12-56.05-.98-48.52-.85c-8.12-.14-13.85-4.33-21.97-4.47-9.09-.16-20.58,3.73-29.68,3.57-12.59-.22-25.17-.44-37.76-.66-10.3-.18-16.93,10.86-11.93,19.86,7.13,10.61,17.88,27.71,28.63,50.09,12.71,26.46,14.8,38.17,26.66,59.96,14.42,26.49,20.37,22.79,35.89,50.14,10.74,18.93,7.01,25.54,19.76,50.26,9.78,18.95,22.99,38.14,29.21,47.37,7.08,1.54,13.21,3.12,23.65-1.93,22.88-11.07,18.73-43.44,44.03-80.9,18.45-27.33,34.26-29.18,42.75-56.66,2.64-8.55,3.31-15.49,9.27-25.74,9.72-16.72,17.49-14.65,29.83-30.07,15.26-19.07,5.54-28.71,22.58-57.07Z"/>
        <path class="cls-9" d="M218.75,366.23c-3.57,1.98-7.66,3.02-11.96,2.96-12.28-.18-19.09-9.93-20.33-11.88l-.18-.28-.15-.29c-1.79-3.34-4.65-6.91-7.97-11.04-5.54-6.9-12.43-15.5-18.85-28.39-9.86-19.78-13.08-31.19-15.43-39.52-1.47-5.2-1.71-12.2-3.76-15.88-3.93-7.08-12.49-12.32-20.05-20.84-7.58-8.54-15.43-17.36-20.18-25.38-4.52-7.62-5.14-15.62-7.38-23.35-2.16-7.45-6.09-15.15-10.39-22.91-3.96-7.14-9.09-14.74-10.4-23.75-2.6-17.84-14.19-30.45-27.33-45.11-4.03-4.49-4.91-10.81-2.31-16.49,2.79-6.11,8.91-10.24,15.45-10.51l31.2-4.91c.1-.02,.19-.03,.29-.06,7.42-1.69,20.06-2.96,27.61-2.99,10.21-.05,16.6-1.46,21.24-1.38,8.34,.13,23.45,2.67,35.14,5.92,8.11,2.25,16.2,3.03,24.06,2.32l24.2-2.18c4.4-.4,13.36-.63,17.79-.71,10.18-.19,16.39,1.06,27.29,3.75l27.72,6.85c4.41,1.09,11.59,3.44,16.11,3.81,4.52,.37,10.58-1.39,15.11-1.75,4.69-.37,5.11,.17,9.51,.54,3.86,.33,7.5,.64,10.74,.38,2.02-.16,4.06-.91,6.41-1.78,3.13-1.15,6.67-2.46,11.12-2.82,8.11-.65,15.2,6.39,17.12,13.28,1.41,5.06,.53,10.52-2.7,16.69-5.43,10.39-8.64,12.19-11.01,14.68-1.86,1.95-.93,2.21-5.39,13.84-.33,.9-.71,3.9-.99,6.1-.88,6.87-2.29,12.81-6.74,18.88-5.25,7.17-6.38,10.95-11.64,14.82-1.71,1.25-8.15,4.91-11.35,7.41-12.86,10.09-13.42,19.73-18.46,32.06-2.48,6.07-5.05,12.35-8.6,18.22-3.99,6.59-9.93,13.27-16.22,20.35-8.94,10.07-21.3,18.4-22.4,26.69-1.08,8.16-6.54,33.01-9.4,38.06-3.04,5.37-13.67,16.52-17.26,19.76-4.29,3.87-5.07,9.18-10.3,18.04-2.23,3.78-5.33,6.77-8.97,8.79Zm-17.31-18.23c.49,.68,2.74,3.52,5.6,3.56,1.1,.01,3.83-.25,5.51-3.09,6.61-11.18,12.55-16.55,17.33-20.86,3.01-2.72,5.19-4.69,6.82-7.57,2.29-4.21,12.04-32.43,12.73-37.69,1.81-13.64,13.33-26.61,24.47-39.15,5.74-6.46,13.21-10.97,16.37-16.18,2.84-4.68,2.98-11.66,5.31-17.36,5.42-13.26,11.56-28.29,28.09-41.26,3.4-2.66,5.78-4.42,7.59-5.75,4.16-3.05,6.45-4.27,10.3-9.53,1.76-2.41-.03-10.54,1.7-14.56,1.95-4.52,4.56-7.24,5.63-10.03,5.42-14.1,6.2-13.23,8.66-16.9,3.75-5.58-.18-2.7,4.29-11.26,1.46-2.79,1.33-3.83,1.33-3.84-.02-.04-.07-.11-.14-.2-1.57,.31-3.19,.91-4.99,1.58-3.13,1.16-6.67,2.47-11.12,2.82-4.69,.37-9.25-.01-13.65-.39-3.86-.33-7.5-.64-10.74-.38-5.47,.44-11.01,.43-16.47-.01-5.46-.45-10.93-1.34-16.25-2.65l-21.43-5.29c-9.4-2.32-18.21-7.22-26.85-7.05-1.72,.03-4.98,.74-8.44,1.58-7.43,1.78-15.08,2.48-22.71,2.14l-6.35-.29c-9.91,.91-22.02-1.95-33.42-5.02-11.35-3.06-27.1-1.4-33.04-1.49-6.44-.1-20.92-2.05-29.78-2-1.93,.01-7.29,.22-9.15,.72l-30.77,8.28c-3.86,1.04-5.36,5.69-2.88,8.83,10.62,13.48,15.34,24.77,20.42,39.66,2.61,7.64,8.05,18.9,11.51,25.13,5.27,9.5,6.9,17.79,9.22,25.79,2.11,7.28,5.53,12.74,8.91,18.43,3.89,6.56,10.96,17.01,17.99,24.92,8.2,9.22,16.88,16.51,21.76,25.28,3.05,5.48,3.1,16.37,4.71,22.07,2.28,8.08,5.15,15.72,14.27,34.02,5.58,11.21,12.87,15.11,18.14,21.68,3.59,4.48,6.99,8.71,9.52,13.32Z"/>
        <path class="cls-5" d="M191.7,304.04c2.32,3.5,4.64,6.91,6.86,10.4,2.42,3.79,4.76,7.63,7.09,11.47,.52,.86,1,1.79,1.27,2.76,.83,3.05-1.64,5.72-4.5,4.55-2.06-.84-4.13-2.39-5.34-4.22-3.54-5.32-6.51-11.01-7.66-17.52-.61-3.48-.19-4.83,2.28-7.45Z"/>
        <path class="cls-7" d="M260.82,95.44c2.86,1.66,6.89,3.57,10.1,5.97,4.18,3.12,3.01,6.45-2,5.85-5.02-.6-10.25-1.64-15.4-2.96-4.55-1.17-8.63-5.48-8.57-8.38,.05-2.3,4.59-3.68,9.1-2.62,1.94,.46,3.9,1.22,6.77,2.14Z"/>
        <path class="cls-10" d="M98.31,128.02c-.39,.96-.77,1.91-1.23,3.05-3.29-.94-4.58-3.51-6.04-5.81-2.36-3.73-4.58-7.56-6.86-11.35-.7-1.43-1.46-2.83-2.09-4.29-1.13-2.65-.36-6.04,1.57-7.22,1.88-1.15,4.82-.74,6.8,1.26,1.11,1.12,1.93,2.56,2.7,3.96,3.13,5.7,5.24,11.67,4.72,18.32-.05,.68,.29,1.39,.45,2.08Z"/>
        <path class="cls-8" d="M140.01,222.12c-4.8-4.85-8.96-9.06-13.12-13.27-1.17-1.18-2.36-2.33-3.47-3.56-4.15-4.57-4.51-7.78-1.27-10.87,2.74-2.61,8.39-2.69,12.11,.46,6.9,5.84,8.83,14.43,8.53,24.08-.02,.75-.9,1.79-1.58,2.54-.4,.45-1.19,.61-1.19,.61Z"/>
        <path class="cls-7" d="M184.97,103.85c-8.4,.71-16.17-.12-23.92-3.95-4.58-2.26-6.21-5.51-4.5-8.54,1.47-2.62,5.02-3.48,9.75-1.99,6.99,2.21,12.6,5.89,17.01,10.45,1.02,1.05,1.06,2.48,1.66,4.02Z"/>
        <path class="cls-7" d="M341.02,115.57c-7.3,2.07-14.35,1.6-21.4,1.65-3.21,.02-6.41-.3-9.6-.55-2.21-.18-3.21-2.05-3.48-4.23-.27-2.21,.87-3.95,2.72-4.89,1.03-.53,2.11-1.08,3.19-1.25,7.72-1.22,15.15-.12,22.4,2.1,1.5,.46,2.91,1.39,4.19,2.38,1.28,.98,2.58,2.16,1.98,4.8Z"/>
        <path class="cls-1" d="M349.36,113.08c-2.84-.86-4.39-3.6-3.64-6.41,.65-2.4,3.31-3.83,5.77-3.11,2.82,.83,5.05,4.41,4.37,7.02-.54,2.06-3.81,3.31-6.5,2.5Z"/>
      </g>
    </g>
  </g>
</svg>