<?xml version="1.0" encoding="UTF-8"?>
<svg xmlns="http://www.w3.org/2000/svg" viewBox="0 0 425.43 425.43">
  <defs>
    <style>
      .cls-1 {
        fill: #a895c7;
      }

      .cls-2 {
        fill: #54dafe;
      }

      .cls-3 {
        fill: #54d9fe;
      }

      .cls-4 {
        fill: #6831d6;
        stroke: #1d1d1b;
        stroke-miterlimit: 10;
      }

      .cls-5 {
        fill: #11100e;
      }

      .cls-6 {
        fill: #07bff9;
      }

      .cls-7 {
        fill: #aa97c7;
      }

      .cls-8 {
        fill: #141111;
      }

      .cls-9 {
        fill: #1d1d1b;
      }

      .cls-10 {
        fill: #13100f;
      }
    </style>
  </defs>
  <g id="_лой_1" data-name="Слой 1"/>
  <g id="_лой_2" data-name="Слой 2">
    <g id="_лой_1-2" data-name="Слой 1">
      <g>
        <rect class="cls-6" x="7.5" y="7.5" width="410.43" height="410.43" rx="71.5" ry="71.5"/>
        <path class="cls-9" d="M346.43,425.43H79C35.44,425.43,0,389.99,0,346.43V79C0,35.44,35.44,0,79,0H346.43c43.56,0,79,35.44,79,79V346.43c0,43.56-35.44,79-79,79ZM78.16,15.65C42.77,15.65,13.98,44.32,13.98,79.57V346.68c0,35.25,28.79,63.92,64.18,63.92H346.33c35.39,0,64.18-28.67,64.18-63.92V79.57c0-35.25-28.79-63.92-64.18-63.92H78.16Z"/>
        <path class="cls-2" d="M382.24,35.32l13.03,23.58c-2.98,.04-4.41,.54-5.35,0-9.74-5.64-19.57-11.14-28.99-17.39-2.86-1.9-5.27-5.76-6.56-9.17-1.96-5.2,3.36-11.09,8.46-9.76,3.45,.9,6.79,2.61,10.17,3.96,3.08,2.93,6.15,5.86,9.23,8.79Z"/>
        <path class="cls-3" d="M392.49,74.79c.81,2.37,1.65,4.73,2.42,7.11,.92,2.83,1.9,5.65,2.63,8.55,.29,1.15-.03,2.48-.08,3.73-.78-.38-1.69-.51-2.32-1.19-5.06-5.45-10.24-10.72-14.96-16.69-1.31-1.66-1.92-5.83-1.54-8.23,.48-3.02,2.76-3.8,5.28-2.21,.62,.39,1.32,.47,1.98,.69,2.19,2.75,4.39,5.5,6.58,8.25Z"/>
      </g>
      <g>
        <path class="cls-4" d="M322.32,60.56c8.83-5.3,17.69-6.46,17.87,3.84l-5.22,15.61,2.16,35.92,7.12,50.99,.98,56.05,.85,48.52c.14,8.12,4.33,13.85,4.47,21.97,.16,9.09-3.73,20.58-3.57,29.68,.22,12.59,.44,25.17,.66,37.76,.18,10.3-10.86,16.93-19.86,11.93-10.61-7.13-27.71-17.88-50.09-28.63-26.46-12.71-38.17-14.8-59.96-26.66-26.49-14.42-22.79-20.37-50.14-35.89-18.93-10.74-25.54-7.01-50.26-19.76-18.95-9.78-38.14-22.99-47.37-29.21-1.54-7.08-3.12-13.21,1.93-23.65,11.07-22.88,43.44-18.73,80.9-44.03,27.33-18.45,29.18-34.26,56.66-42.75,8.55-2.64,15.49-3.31,25.74-9.27,16.72-9.72,14.65-17.49,30.07-29.83,19.07-15.26,28.71-5.54,57.07-22.58Z"/>
        <path class="cls-9" d="M59.2,207.68c-1.98,3.57-3.02,7.66-2.96,11.96,.18,12.28,9.93,19.09,11.88,20.33l.28,.18,.29,.15c3.34,1.79,6.91,4.65,11.04,7.97,6.9,5.54,15.5,12.43,28.39,18.85,19.78,9.86,31.19,13.08,39.52,15.43,5.2,1.47,12.2,1.71,15.88,3.76,7.08,3.93,12.32,12.49,20.84,20.05,8.54,7.58,17.36,15.43,25.38,20.18,7.62,4.52,15.62,5.14,23.35,7.38,7.45,2.16,15.15,6.09,22.91,10.39,7.14,3.96,14.74,9.09,23.75,10.4,17.84,2.6,30.45,14.19,45.11,27.33,4.49,4.03,10.81,4.91,16.49,2.31,6.11-2.79,10.24-8.91,10.51-15.45l4.91-31.2c.02-.1,.03-.19,.06-.29,1.69-7.42,2.96-20.06,2.99-27.61,.05-10.21,1.46-16.6,1.38-21.24-.13-8.34-2.67-23.45-5.92-35.14-2.25-8.11-3.03-16.2-2.32-24.06l2.18-24.2c.4-4.4,.63-13.36,.71-17.79,.19-10.18-1.06-16.39-3.75-27.29l-6.85-27.72c-1.09-4.41-3.44-11.59-3.81-16.11-.37-4.52,1.39-10.58,1.75-15.11,.37-4.69-.17-5.11-.54-9.51-.33-3.86-.64-7.5-.38-10.74,.16-2.02,.91-4.06,1.78-6.41,1.15-3.13,2.46-6.67,2.82-11.12,.65-8.11-6.39-15.2-13.28-17.12-5.06-1.41-10.52-.53-16.69,2.7-10.39,5.43-12.19,8.64-14.68,11.01-1.95,1.86-2.21,.93-13.84,5.39-.9,.33-3.9,.71-6.1,.99-6.87,.88-12.81,2.29-18.88,6.74-7.17,5.25-10.95,6.38-14.82,11.64-1.25,1.71-4.91,8.15-7.41,11.35-10.09,12.86-19.73,13.42-32.06,18.46-6.07,2.48-12.35,5.05-18.22,8.6-6.59,3.99-13.27,9.93-20.35,16.22-10.07,8.94-18.4,21.3-26.69,22.4-8.16,1.08-33.01,6.54-38.06,9.4-5.37,3.04-16.52,13.67-19.76,17.26-3.87,4.29-9.18,5.07-18.04,10.3-3.78,2.23-6.77,5.33-8.79,8.97Zm18.23,17.31c-.68-.49-3.52-2.74-3.56-5.6-.01-1.1,.25-3.83,3.09-5.51,11.18-6.61,16.55-12.55,20.86-17.33,2.72-3.01,4.69-5.19,7.57-6.82,4.21-2.29,32.43-12.04,37.69-12.73,13.64-1.81,26.61-13.33,39.15-24.47,6.46-5.74,10.97-13.21,16.18-16.37,4.68-2.84,11.66-2.98,17.36-5.31,13.26-5.42,28.29-11.56,41.26-28.09,2.66-3.4,4.42-5.78,5.75-7.59,3.05-4.16,4.27-6.45,9.53-10.3,2.41-1.76,10.54,.03,14.56-1.7,4.52-1.95,7.24-4.56,10.03-5.63,14.1-5.42,13.23-6.2,16.9-8.66,5.58-3.75,2.7,.18,11.26-4.29,2.79-1.46,3.83-1.33,3.84-1.33,.04,.02,.11,.07,.2,.14-.31,1.57-.91,3.19-1.58,4.99-1.16,3.13-2.47,6.67-2.82,11.12-.37,4.69,.01,9.25,.39,13.65,.33,3.86,.64,7.5,.38,10.74-.44,5.47-.43,11.01,.01,16.47,.45,5.46,1.34,10.93,2.65,16.25l5.29,21.43c2.32,9.4,7.22,18.21,7.05,26.85-.03,1.72-.74,4.98-1.58,8.44-1.78,7.43-2.48,15.08-2.14,22.71l.29,6.35c-.91,9.91,1.95,22.02,5.02,33.42,3.06,11.35,1.4,27.1,1.49,33.04,.1,6.44,2.05,20.92,2,29.78-.01,1.93-.22,7.29-.72,9.15l-8.28,30.77c-1.04,3.86-5.69,5.36-8.83,2.88-13.48-10.62-24.77-15.34-39.66-20.42-7.64-2.61-18.9-8.05-25.13-11.51-9.5-5.27-17.79-6.9-25.79-9.22-7.28-2.11-12.74-5.53-18.43-8.91-6.56-3.89-17.01-10.96-24.92-17.99-9.22-8.2-16.51-16.88-25.28-21.76-5.48-3.05-16.37-3.1-22.07-4.71-8.08-2.28-15.72-5.15-34.02-14.27-11.21-5.58-15.11-12.87-21.68-18.14-4.48-3.59-8.71-6.99-13.32-9.52Z"/>
        <path class="cls-5" d="M121.39,234.73c-3.5-2.32-6.91-4.64-10.4-6.86-3.79-2.42-7.63-4.76-11.47-7.09-.86-.52-1.79-1-2.76-1.27-3.05-.83-5.72,1.64-4.55,4.5,.84,2.06,2.39,4.13,4.22,5.34,5.32,3.54,11.01,6.51,17.52,7.66,3.48,.61,4.83,.19,7.45-2.28Z"/>
        <path class="cls-7" d="M329.98,165.61c-1.66-2.86-3.57-6.89-5.97-10.1-3.12-4.18-6.45-3.01-5.85,2,.6,5.02,1.64,10.25,2.96,15.4,1.17,4.55,5.48,8.63,8.38,8.57,2.3-.05,3.68-4.59,2.62-9.1-.46-1.94-1.22-3.9-2.14-6.77Z"/>
        <path class="cls-10" d="M297.41,328.11c-.96,.39-1.91,.77-3.05,1.23,.94,3.29,3.51,4.58,5.81,6.04,3.73,2.36,7.56,4.58,11.35,6.86,1.43,.7,2.83,1.46,4.29,2.09,2.65,1.13,6.04,.36,7.22-1.57,1.15-1.88,.74-4.82-1.26-6.8-1.12-1.11-2.56-1.93-3.96-2.7-5.7-3.13-11.67-5.24-18.32-4.72-.68,.05-1.39-.29-2.08-.45Z"/>
        <path class="cls-8" d="M203.31,286.42c4.85,4.8,9.06,8.96,13.27,13.12,1.18,1.17,2.33,2.36,3.56,3.47,4.57,4.15,7.78,4.51,10.87,1.27,2.61-2.74,2.69-8.39-.46-12.11-5.84-6.9-14.43-8.83-24.08-8.53-.75,.02-1.79,.9-2.54,1.58-.45,.4-.61,1.19-.61,1.19Z"/>
        <path class="cls-7" d="M321.58,241.46c-.71,8.4,.12,16.17,3.95,23.92,2.26,4.58,5.51,6.21,8.54,4.5,2.62-1.47,3.48-5.02,1.99-9.75-2.21-6.99-5.89-12.6-10.45-17.01-1.05-1.02-2.48-1.06-4.02-1.66Z"/>
        <path class="cls-7" d="M309.86,85.4c-2.07,7.3-1.6,14.35-1.65,21.4-.02,3.21,.3,6.41,.55,9.6,.18,2.21,2.05,3.21,4.23,3.48,2.21,.27,3.95-.87,4.89-2.72,.53-1.03,1.08-2.11,1.25-3.19,1.22-7.72,.12-15.15-2.1-22.4-.46-1.5-1.39-2.91-2.38-4.19-.98-1.28-2.16-2.58-4.8-1.98Z"/>
        <path class="cls-1" d="M312.35,77.07c.86,2.84,3.6,4.39,6.41,3.64,2.4-.65,3.83-3.31,3.11-5.77-.83-2.82-4.41-5.05-7.02-4.37-2.06,.54-3.31,3.81-2.5,6.5Z"/>
      </g>
    </g>
  </g>
</svg>