<?xml version="1.0" encoding="UTF-8"?>
<svg xmlns="http://www.w3.org/2000/svg" viewBox="0 0 425.43 425.43">
  <defs>
    <style>
      .cls-1 {
        fill: #a895c7;
      }

      .cls-2 {
        fill: #54dafe;
      }

      .cls-3 {
        fill: #54d9fe;
      }

      .cls-4 {
        fill: #6831d6;
        stroke: #1d1d1b;
        stroke-miterlimit: 10;
      }

      .cls-5 {
        fill: #11100e;
      }

      .cls-6 {
        fill: #07bff9;
      }

      .cls-7 {
        fill: #aa97c7;
      }

      .cls-8 {
        fill: #141111;
      }

      .cls-9 {
        fill: #1d1d1b;
      }

      .cls-10 {
        fill: #13100f;
      }
    </style>
  </defs>
  <g id="_лой_1" data-name="Слой 1"/>
  <g id="_лой_2" data-name="Слой 2">
    <g id="_лой_1-2" data-name="Слой 1">
      <g>
        <rect class="cls-6" x="7.5" y="7.5" width="410.43" height="410.43" rx="71.5" ry="71.5"/>
        <path class="cls-9" d="M346.43,425.43H79C35.44,425.43,0,389.99,0,346.43V79C0,35.44,35.44,0,79,0H346.43c43.56,0,79,35.44,79,79V346.43c0,43.56-35.44,79-79,79ZM78.16,15.65C42.77,15.65,13.98,44.32,13.98,79.57V346.68c0,35.25,28.79,63.92,64.18,63.92H346.33c35.39,0,64.18-28.67,64.18-63.92V79.57c0-35.25-28.79-63.92-64.18-63.92H78.16Z"/>
        <path class="cls-2" d="M382.24,35.32l13.03,23.58c-2.98,.04-4.41,.54-5.35,0-9.74-5.64-19.57-11.14-28.99-17.39-2.86-1.9-5.27-5.76-6.56-9.17-1.96-5.2,3.36-11.09,8.46-9.76,3.45,.9,6.79,2.61,10.17,3.96,3.08,2.93,6.15,5.86,9.23,8.79Z"/>
        <path class="cls-3" d="M392.49,74.79c.81,2.37,1.65,4.73,2.42,7.11,.92,2.83,1.9,5.65,2.63,8.55,.29,1.15-.03,2.48-.08,3.73-.78-.38-1.69-.51-2.32-1.19-5.06-5.45-10.24-10.72-14.96-16.69-1.31-1.66-1.92-5.83-1.54-8.23,.48-3.02,2.76-3.8,5.28-2.21,.62,.39,1.32,.47,1.98,.69,2.19,2.75,4.39,5.5,6.58,8.25Z"/>
      </g>
      <g>
        <path class="cls-4" d="M346.75,226.41c9.01-4.99,14.44-12.09,5.61-17.39l-16.13-3.28-30.03-19.83-40.6-31.66-48.05-28.87-41.59-24.99c-6.96-4.18-9.83-10.67-16.79-14.86-7.79-4.68-19.69-7.06-27.48-11.75-10.79-6.48-21.58-12.97-32.37-19.45-8.83-5.3-20.09,.94-20.27,11.23,.87,12.75,1.63,32.93-.25,57.69-2.22,29.27-6.27,40.46-6.89,65.26-.76,30.15,6.24,29.92,6.01,61.37-.17,21.76-6.7,25.62-8.02,53.4-1.01,21.3,.84,44.53,1.61,55.63,5.36,4.88,9.88,9.31,21.45,10.16,25.35,1.86,37.94-28.26,78.58-48.05,29.64-14.44,44.26-8.14,65.35-27.69,6.56-6.08,10.62-11.76,20.9-17.65,16.78-9.62,22.47-3.94,40.87-11.13,22.75-8.89,19.15-22.09,48.09-38.14Z"/>
        <path class="cls-9" d="M87.78,380.73c-4.08-.07-8.15-1.21-11.84-3.42-10.55-6.29-11.57-18.14-11.67-20.45v-.65c.12-3.79-.58-8.31-1.38-13.55-1.34-8.75-3.01-19.63-2.13-34.02,1.35-22.06,4.27-33.55,6.4-41.95,1.33-5.24,4.62-11.42,4.69-15.63,.13-8.1-4.65-16.92-6.95-28.07-2.3-11.18-4.68-22.75-4.79-32.07-.11-8.86,3.35-16.1,5.28-23.91,1.86-7.53,2.31-16.17,2.46-25.04,.14-8.16-.5-17.31,2.87-25.77,6.67-16.75,2.94-33.47-1.11-52.73-1.24-5.9,1.15-11.82,6.24-15.44,5.47-3.9,12.84-4.41,18.63-1.38l29.47,11.35c.09,.04,.18,.07,.28,.1,7.27,2.25,18.85,7.47,25.41,11.21,8.87,5.06,15.1,7.04,19.09,9.42,7.16,4.28,18.97,14.04,27.47,22.7,5.9,6,12.52,10.73,19.68,14.04l22.05,10.21c4.01,1.86,11.88,6.13,15.76,8.28,8.91,4.92,13.66,9.11,21.75,16.89l20.58,19.79c3.27,3.15,8.31,8.77,12.05,11.35,3.73,2.58,9.86,4.09,13.96,6.04,4.25,2.02,4.34,2.7,7.97,5.23,3.18,2.22,6.18,4.31,9.11,5.7,1.83,.87,3.97,1.24,6.44,1.66,3.29,.56,7.01,1.2,11.04,3.12,7.35,3.49,9.97,13.13,8.19,20.06-1.31,5.09-4.8,9.38-10.68,13.11-9.9,6.28-13.58,6.24-16.87,7.21-2.59,.76-1.91,1.45-11.59,9.29-.73,.61-2.57,3.03-3.91,4.79-4.2,5.5-8.38,9.95-15.28,12.99-8.13,3.58-11,6.3-17.49,7.01-2.11,.23-9.51,.17-13.53,.75-16.18,2.31-21.49,10.38-32.01,18.53-5.18,4.02-10.55,8.18-16.56,11.48-6.75,3.71-15.24,6.53-24.22,9.52-12.78,4.25-27.64,5.28-32.74,11.91-5.02,6.52-22.17,25.32-27.17,28.26-5.32,3.13-20.1,7.47-24.83,8.48-5.65,1.21-8.97,5.41-17.94,10.47-3.82,2.15-8,3.19-12.16,3.12Zm-5.88-24.44c.09,.83,.61,4.42,3.07,5.88,.94,.56,3.45,1.7,6.31,.08,11.31-6.38,19.14-8.06,25.44-9.4,3.97-.85,6.84-1.46,9.7-3.14,4.09-2.5,26.64-22.06,29.88-26.28,8.39-10.9,24.85-16.38,40.77-21.67,8.2-2.73,16.93-2.89,22.27-5.83,4.8-2.64,8.42-8.61,13.28-12.38,11.32-8.78,24.16-18.72,44.96-21.69,4.27-.61,7.21-.93,9.45-1.18,5.12-.56,7.72-.48,13.68-3.1,2.73-1.21,5.24-9.14,8.75-11.76,3.95-2.94,7.57-3.99,9.9-5.87,11.74-9.51,11.98-8.36,15.95-10.3,6.04-2.96,1.2-2.43,9.34-7.6,2.66-1.69,3.07-2.65,3.07-2.66,0-.04,0-.13-.03-.24-1.52-.51-3.21-.8-5.11-1.13-3.28-.56-7.01-1.2-11.04-3.12-4.25-2.02-8-4.64-11.63-7.16-3.18-2.22-6.18-4.31-9.11-5.7-4.96-2.36-9.75-5.13-14.26-8.25-4.51-3.12-8.8-6.63-12.75-10.43l-15.91-15.3c-6.98-6.71-12.16-15.35-19.73-19.53-1.51-.83-4.68-1.84-8.1-2.86-7.32-2.17-14.3-5.39-20.74-9.5l-5.35-3.42c-9.04-4.16-18.1-12.7-26.43-21.05-8.3-8.32-22.77-14.76-27.87-17.81-5.53-3.31-17.09-12.23-24.79-16.62-1.68-.95-6.42-3.46-8.28-3.95l-30.79-8.21c-3.87-1.03-7.49,2.24-6.91,6.2,2.46,16.99,.9,29.11-2.14,44.55-1.56,7.92-2.48,20.4-2.6,27.52-.19,10.86-2.92,18.86-4.91,26.94-1.81,7.36-1.58,13.8-1.5,20.42,.09,7.63,.99,20.21,3.12,30.58,2.49,12.09,6.37,22.73,6.2,32.77-.1,6.27-5.5,15.73-6.96,21.47-2.07,8.14-3.4,16.19-4.65,36.6-.77,12.5,3.59,19.52,4.87,27.85,.87,5.67,1.69,11.04,1.59,16.3Z"/>
        <path class="cls-5" d="M95.45,313.34c.26,4.19,.56,8.31,.75,12.44,.2,4.49,.31,8.99,.41,13.48,.02,1-.03,2.05-.28,3.02-.8,3.05-4.27,4.13-6.17,1.69-1.36-1.76-2.38-4.14-2.52-6.32-.41-6.38-.13-12.79,2.13-19,1.21-3.32,2.25-4.28,5.7-5.31Z"/>
        <path class="cls-7" d="M259.61,167.25c1.65,2.87,4.18,6.54,5.76,10.22,2.06,4.79-.62,7.09-4.66,4.07-4.04-3.03-8.06-6.54-11.86-10.26-3.36-3.28-4.74-9.06-3.23-11.55,1.19-1.97,5.82-.89,9.19,2.28,1.45,1.37,2.77,3.01,4.79,5.23Z"/>
        <path class="cls-10" d="M102.59,114.21c-.81,.64-1.63,1.27-2.6,2.03-2.38-2.46-2.22-5.33-2.33-8.05-.18-4.42-.19-8.84-.27-13.26,.11-1.59,.15-3.18,.34-4.76,.34-2.86,2.71-5.41,4.97-5.47,2.21-.06,4.54,1.77,5.26,4.49,.4,1.52,.39,3.18,.36,4.77-.13,6.5-1.3,12.72-5.08,18.23-.38,.56-.44,1.35-.65,2.03Z"/>
        <path class="cls-8" d="M91.64,216.55c-1.73-6.6-3.24-12.33-4.73-18.05-.42-1.6-.88-3.2-1.22-4.82-1.3-6.04-.01-9,4.34-10.05,3.68-.89,8.6,1.87,10.25,6.46,3.05,8.5,.43,16.91-4.66,25.12-.4,.64-1.67,1.1-2.64,1.41-.57,.19-1.33-.07-1.34-.07Z"/>
        <path class="cls-7" d="M189.71,136.6c-7.63-3.58-13.94-8.18-18.74-15.38-2.83-4.24-2.62-7.87,.37-9.65,2.58-1.54,6.09-.51,9.44,3.15,4.94,5.41,7.97,11.4,9.51,17.56,.36,1.42-.32,2.68-.57,4.31Z"/>
        <path class="cls-7" d="M319,224.78c-7.36-1.86-13.23-5.79-19.36-9.27-2.79-1.59-5.4-3.46-8.03-5.28-1.83-1.26-1.76-3.38-.9-5.41,.87-2.05,2.73-2.98,4.8-2.88,1.16,.06,2.37,.12,3.39,.52,7.3,2.81,13.18,7.47,18.35,13.02,1.07,1.15,1.82,2.66,2.44,4.16,.61,1.49,1.16,3.16-.69,5.14Z"/>
        <path class="cls-1" d="M327.47,226.79c-2.03-2.17-2-5.32,.05-7.37,1.76-1.75,4.78-1.66,6.55,.19,2.03,2.13,2.17,6.35,.27,8.26-1.5,1.51-4.96,.97-6.87-1.09Z"/>
      </g>
    </g>
  </g>
</svg>